<svg width="126.4411865234375px" height="122.021240234375px" xmlns="http://www.w3.org/2000/svg" viewBox="186.77940673828124 13.9893798828125 126.4411865234375 122.021240234375" style="background: rgb(253, 253, 253);" preserveAspectRatio="xMidYMid"><defs><filter id="editing-hover" x="-100%" y="-100%" width="300%" height="300%"><feFlood flood-color="#bbcedd" result="flood"></feFlood><feComposite operator="in" in2="SourceAlpha" in="flood" result="shadow"></feComposite><feOffset dx="-4" dy="-4" in="SourceGraphic" result="offset-1"></feOffset><feOffset dx="4" dy="4" in="shadow" result="offset-2"></feOffset><feMerge><feMergeNode in="offset-2"></feMergeNode><feMergeNode in="offset-1"></feMergeNode></feMerge></filter></defs><g filter="url(#editing-hover)"><g transform="translate(212.74531358480453, 97.15781211853027)"><path d="M0.96-1.60L0.58-9.47L8.58-15.62L13.57-19.71L13.57-19.71Q16.13-21.89 17.98-23.81L17.98-23.81L17.98-23.81Q21.38-27.20 21.38-30.46L21.38-30.46L21.38-30.46Q21.38-32.38 20.13-33.41L20.13-33.41L20.13-33.41Q18.88-34.43 17.06-34.43L17.06-34.43L17.06-34.43Q15.23-34.43 13.92-34.02L13.92-34.02L13.92-34.02Q12.61-33.60 11.46-32.90L11.46-32.90L11.46-32.90Q9.02-31.30 7.87-28.86L7.87-28.86L7.87-28.86Q6.27-28.93 5.22-30.27L5.22-30.27L5.22-30.27Q4.16-31.62 4.16-33.57L4.16-33.57L4.16-33.57Q4.16-35.52 5.38-37.34L5.38-37.34L5.38-37.34Q6.59-39.17 8.77-40.58L8.77-40.58L8.77-40.58Q13.50-43.52 20-43.52L20-43.52L20-43.52Q26.50-43.52 30.14-40.70L30.14-40.70L30.14-40.70Q33.79-37.89 33.79-33.09L33.79-33.09L33.79-33.09Q33.79-29.50 32.03-26.24L32.03-26.24L32.03-26.24Q30.27-22.98 25.60-19.65L25.60-19.65L18.69-14.78L14.53-12.03L9.22-8.77L11.46-8.51L11.46-8.51Q12.99-8.32 15.68-8.32L15.68-8.32L15.68-8.32Q18.37-8.32 20.61-8.61L20.61-8.61L20.61-8.61Q22.85-8.90 24.77-9.47L24.77-9.47L24.77-9.47Q28.99-10.62 30.34-12.22L30.34-12.22L30.34-12.22Q31.04-11.71 31.58-10.40L31.58-10.40L31.58-10.40Q32.13-9.09 32.13-7.49L32.13-7.49L32.13-7.49Q32.13-2.69 28.48-0.70L28.48-0.70L28.48-0.70Q24.83 1.28 17.34 1.28L17.34 1.28L17.34 1.28Q13.44 1.28 8.26 0.16L8.26 0.16L8.26 0.16Q3.07-0.96 0.96-1.60L0.96-1.60ZM38.98-39.87L38.98-39.87L38.98-39.87Q41.98-43.39 46.98-43.39L46.98-43.39L46.98-43.39Q50.94-43.39 53.06-41.86L53.06-41.86L53.06-41.86Q55.17-40.26 56.58-36.35L56.58-36.35L59.26-28.74L68.93-42.18L77.57-42.18L61.89-21.38L65.92-9.98L65.92-9.98Q66.82-7.42 68.38-5.54L68.38-5.54L68.38-5.54Q69.95-3.65 71.36-3.33L71.36-3.33L71.36-3.33Q70.08-0.90 67.87 0.19L67.87 0.19L67.87 0.19Q65.66 1.28 62.43 1.28L62.43 1.28L62.43 1.28Q59.20 1.28 56.93-0.83L56.93-0.83L56.93-0.83Q54.66-2.94 52.93-7.68L52.93-7.68L51.07-12.80L41.41 0L33.54 0L48.26-20.42L43.65-33.28L43.65-33.28Q42.62-36.10 41.60-37.54L41.60-37.54L41.60-37.54Q40.58-38.98 38.98-39.87Z" fill="#85a2b6"></path></g></g><style>text {
  font-size: 64px;
  font-family: Arial Black;
  dominant-baseline: central;
  text-anchor: middle;
}</style></svg>