<svg xmlns="http://www.w3.org/2000/svg" width="127.63" height="122.02" viewBox="186.18 13.99 127.63 122.02" style="background:#fdfdfd" preserveAspectRatio="xMidYMid"><defs/><defs><filter id="editing-hover" width="300%" height="300%" x="-100%" y="-100%"><feFlood flood-color="#bbcedd" result="flood"/><feComposite in="flood" in2="SourceAlpha" operator="in" result="shadow"/><feOffset dx="-4" dy="-4" in="SourceGraphic" result="offset-1"/><feOffset dx="4" dy="4" in="shadow" result="offset-2"/><feMerge><feMergeNode in="offset-2"/><feMergeNode in="offset-1"/></feMerge></filter></defs><g filter="url(#editing-hover)"><path fill="#85a2b6" d="M245.97 80.36q.71 1.34.71 3.97 0 2.62-1.96 4.44-1.95 1.83-6.24 1.83h-.38l-1.02 6.59q-1.73 1.28-4.8 1.28-3.97 0-5.25-2.43-.5-.9-.5-1.67 0-.9.11-1.92l.45-2.43-14.72-1.53v-8.07l23.94-26.81v.06l.06-.06 8.9.96q-3 12.28-5.57 26.43h1.47q3.65 0 4.8-.64zm-12.86-16l-13.89 16.19 9.66.32q2.12-9.41 4.23-16.51zm18.7-7.04q3-3.52 8-3.52 3.95 0 6.07 1.53 2.11 1.6 3.52 5.5l2.68 7.62L281.75 55h8.64l-15.68 20.8 4.03 11.4q.9 2.56 2.46 4.44 1.57 1.89 2.98 2.2-1.28 2.44-3.49 3.53-2.2 1.09-5.44 1.09-3.23 0-5.5-2.11t-4-6.85l-1.86-5.12-9.66 12.8h-7.87l14.72-20.42-4.6-12.86q-1.04-2.82-2.06-4.26t-2.62-2.33z"/></g></svg>